<svg width="56" height="56" viewBox="0 0 56 56" fill="none" xmlns="http://www.w3.org/2000/svg">
<g filter="url(#filter0_d_3770_10796)">
<path d="M28 6C16.954 6 8 14.954 8 26C8 37.046 16.954 46 28 46C28.2838 46 28.565 45.9929 28.8459 45.9812V31.3822H25.8289V26.3509H28.8459V23.3308C28.8459 19.2261 30.5459 16.7832 35.381 16.7832H39.4066V21.8177H36.891C35.0085 21.8177 34.8828 22.5196 34.8828 23.8321L34.8766 26.3509H39.4348L38.9023 31.3822H34.8766V44.7876C42.5348 41.9835 48 34.6297 48 26C48 14.954 39.046 6 28 6Z" fill="#3B5998"/>
</g>
<defs>
<filter id="filter0_d_3770_10796" x="0" y="0" width="56" height="56" filterUnits="userSpaceOnUse" color-interpolation-filters="sRGB">
<feFlood flood-opacity="0" result="BackgroundImageFix"/>
<feColorMatrix in="SourceAlpha" type="matrix" values="0 0 0 0 0 0 0 0 0 0 0 0 0 0 0 0 0 0 127 0" result="hardAlpha"/>
<feOffset dy="2"/>
<feGaussianBlur stdDeviation="4"/>
<feComposite in2="hardAlpha" operator="out"/>
<feColorMatrix type="matrix" values="0 0 0 0 0 0 0 0 0 0 0 0 0 0 0 0 0 0 0.1 0"/>
<feBlend mode="normal" in2="BackgroundImageFix" result="effect1_dropShadow_3770_10796"/>
<feBlend mode="normal" in="SourceGraphic" in2="effect1_dropShadow_3770_10796" result="shape"/>
</filter>
</defs>
</svg>
